<svg xmlns="http://www.w3.org/2000/svg" xmlns:xlink="http://www.w3.org/1999/xlink" width="500" zoomAndPan="magnify" viewBox="0 0 375 374.999991" height="500" preserveAspectRatio="xMidYMid meet" version="1.0"><defs><clipPath id="d4eff28918"><path d="M 125 330 L 218 330 L 218 375 L 125 375 Z M 125 330 " clip-rule="nonzero"/></clipPath><clipPath id="850b4583b6"><path d="M 123.636719 376.324219 L 171.449219 328.515625 L 219.632812 376.699219 L 171.820312 424.511719 Z M 123.636719 376.324219 " clip-rule="nonzero"/></clipPath><clipPath id="e78750af76"><path d="M 126.816406 373.144531 L 168.265625 331.695312 C 170.023438 329.9375 172.871094 329.941406 174.628906 331.695312 L 216.289062 373.355469 C 218.046875 375.113281 218.046875 377.960938 216.289062 379.71875 L 174.839844 421.167969 C 173.082031 422.921875 170.234375 422.921875 168.476562 421.167969 L 126.816406 379.507812 C 125.0625 377.75 125.0625 374.902344 126.816406 373.144531 Z M 126.816406 373.144531 " clip-rule="nonzero"/></clipPath><clipPath id="2454a78cbd"><path d="M 185 233 L 340 233 L 340 375 L 185 375 Z M 185 233 " clip-rule="nonzero"/></clipPath><clipPath id="54be66292f"><path d="M 183.109375 310.882812 L 263.25 230.746094 L 341.550781 309.046875 L 261.414062 389.183594 Z M 183.109375 310.882812 " clip-rule="nonzero"/></clipPath><clipPath id="9b883476a6"><path d="M 186.824219 307.167969 L 259.371094 234.621094 C 260.355469 233.636719 261.691406 233.085938 263.082031 233.085938 C 264.476562 233.085938 265.8125 233.636719 266.796875 234.621094 L 337.671875 305.5 C 338.65625 306.484375 339.210938 307.820312 339.210938 309.210938 C 339.210938 310.605469 338.65625 311.941406 337.671875 312.925781 L 265.125 385.472656 C 264.140625 386.457031 262.804688 387.011719 261.414062 387.011719 C 260.019531 387.011719 258.683594 386.457031 257.699219 385.472656 L 186.824219 314.59375 C 185.839844 313.609375 185.285156 312.273438 185.285156 310.882812 C 185.285156 309.488281 185.839844 308.152344 186.824219 307.167969 Z M 186.824219 307.167969 " clip-rule="nonzero"/></clipPath><clipPath id="996cbc893a"><path d="M 90 136 L 240 136 L 240 286 L 90 286 Z M 90 136 " clip-rule="nonzero"/></clipPath><clipPath id="8937d91acd"><path d="M 164.285156 134.332031 L 241.644531 211.691406 L 165.476562 287.859375 L 88.117188 210.5 Z M 164.285156 134.332031 " clip-rule="nonzero"/></clipPath><clipPath id="c33e563262"><path d="M 168 138.042969 L 237.90625 207.949219 C 238.890625 208.933594 239.441406 210.269531 239.441406 211.664062 C 239.441406 213.054688 238.890625 214.390625 237.90625 215.375 L 169.160156 284.117188 C 168.175781 285.101562 166.839844 285.65625 165.449219 285.65625 C 164.058594 285.65625 162.722656 285.101562 161.738281 284.117188 L 91.832031 214.210938 C 90.847656 213.226562 90.292969 211.890625 90.292969 210.5 C 90.292969 209.109375 90.847656 207.773438 91.832031 206.789062 L 160.574219 138.042969 C 161.558594 137.058594 162.894531 136.507812 164.285156 136.507812 C 165.679688 136.507812 167.015625 137.058594 168 138.042969 Z M 168 138.042969 " clip-rule="nonzero"/></clipPath><clipPath id="a96cddbe28"><path d="M 184 75 L 278 75 L 278 168 L 184 168 Z M 184 75 " clip-rule="nonzero"/></clipPath><clipPath id="2636a132d3"><path d="M 183.109375 121.285156 L 230.917969 73.472656 L 279.105469 121.65625 L 231.292969 169.46875 Z M 183.109375 121.285156 " clip-rule="nonzero"/></clipPath><clipPath id="cc8d6dfb1e"><path d="M 186.289062 118.101562 L 227.738281 76.65625 C 229.496094 74.898438 232.34375 74.898438 234.101562 76.65625 L 275.761719 118.3125 C 277.515625 120.070312 277.515625 122.917969 275.761719 124.675781 L 234.3125 166.125 C 232.554688 167.882812 229.707031 167.882812 227.949219 166.125 L 186.289062 124.464844 C 184.53125 122.707031 184.53125 119.859375 186.289062 118.101562 Z M 186.289062 118.101562 " clip-rule="nonzero"/></clipPath><clipPath id="a13b42ef06"><path d="M 337 73 L 375 73 L 375 223 L 337 223 Z M 337 73 " clip-rule="nonzero"/></clipPath><clipPath id="409b592e01"><path d="M 335.5625 148.195312 L 412.917969 70.835938 L 489.085938 147.003906 L 411.730469 224.363281 Z M 335.5625 148.195312 " clip-rule="nonzero"/></clipPath><clipPath id="73cc8b3942"><path d="M 339.273438 144.480469 L 409.179688 74.574219 C 410.164062 73.589844 411.5 73.039062 412.890625 73.039062 C 414.285156 73.039062 415.621094 73.589844 416.605469 74.574219 L 485.347656 143.320312 C 486.332031 144.304688 486.882812 145.636719 486.882812 147.03125 C 486.882812 148.421875 486.332031 149.757812 485.347656 150.742188 L 415.441406 220.648438 C 414.457031 221.632812 413.121094 222.1875 411.730469 222.1875 C 410.335938 222.1875 409 221.632812 408.015625 220.648438 L 339.273438 151.90625 C 338.289062 150.921875 337.734375 149.585938 337.734375 148.195312 C 337.734375 146.800781 338.289062 145.464844 339.273438 144.480469 Z M 339.273438 144.480469 " clip-rule="nonzero"/></clipPath><clipPath id="5e24426c5c"><path d="M 247 14 L 340 14 L 340 107 L 247 107 Z M 247 14 " clip-rule="nonzero"/></clipPath><clipPath id="c17822a164"><path d="M 245.550781 60.066406 L 293.359375 12.253906 L 341.546875 60.441406 L 293.734375 108.25 Z M 245.550781 60.066406 " clip-rule="nonzero"/></clipPath><clipPath id="7ef7308439"><path d="M 248.730469 56.882812 L 290.179688 15.4375 C 291.9375 13.679688 294.785156 13.679688 296.542969 15.4375 L 338.199219 57.09375 C 339.957031 58.851562 339.957031 61.703125 338.199219 63.460938 L 296.753906 104.90625 C 294.996094 106.664062 292.148438 106.664062 290.390625 104.90625 L 248.730469 63.25 C 246.972656 61.492188 246.972656 58.640625 248.730469 56.882812 Z M 248.730469 56.882812 " clip-rule="nonzero"/></clipPath><clipPath id="3a292bf750"><path d="M 0 233 L 149 233 L 149 375 L 0 375 Z M 0 233 " clip-rule="nonzero"/></clipPath><clipPath id="372f5a3aaa"><path d="M -2.585938 308.164062 L 74.773438 230.808594 L 150.9375 306.976562 L 73.582031 384.332031 Z M -2.585938 308.164062 " clip-rule="nonzero"/></clipPath><clipPath id="4859b7d68e"><path d="M 1.125 304.453125 L 71.03125 234.546875 C 72.015625 233.5625 73.351562 233.007812 74.746094 233.007812 C 76.136719 233.007812 77.472656 233.5625 78.457031 234.546875 L 147.199219 303.289062 C 148.183594 304.273438 148.738281 305.609375 148.738281 307 C 148.738281 308.394531 148.183594 309.730469 147.199219 310.714844 L 77.292969 380.621094 C 76.308594 381.605469 74.972656 382.15625 73.582031 382.15625 C 72.191406 382.15625 70.855469 381.605469 69.871094 380.621094 L 1.125 311.878906 C 0.140625 310.894531 -0.410156 309.558594 -0.410156 308.164062 C -0.410156 306.773438 0.140625 305.4375 1.125 304.453125 Z M 1.125 304.453125 " clip-rule="nonzero"/></clipPath><clipPath id="5633d25947"><path d="M 318 330 L 375 330 L 375 375 L 318 375 Z M 318 330 " clip-rule="nonzero"/></clipPath><clipPath id="a614293899"><path d="M 316.472656 376.324219 L 364.285156 328.515625 L 412.46875 376.699219 L 364.65625 424.511719 Z M 316.472656 376.324219 " clip-rule="nonzero"/></clipPath><clipPath id="6e37c81c9a"><path d="M 319.65625 373.144531 L 361.101562 331.695312 C 362.859375 329.9375 365.710938 329.941406 367.464844 331.695312 L 409.125 373.355469 C 410.882812 375.113281 410.882812 377.960938 409.125 379.71875 L 367.675781 421.167969 C 365.921875 422.921875 363.070312 422.921875 361.3125 421.167969 L 319.65625 379.507812 C 317.898438 377.75 317.898438 374.902344 319.65625 373.144531 Z M 319.65625 373.144531 " clip-rule="nonzero"/></clipPath><clipPath id="2f6735fc6c"><path d="M 280 168 L 373 168 L 373 261 L 280 261 Z M 280 168 " clip-rule="nonzero"/></clipPath><clipPath id="837cabd4f8"><path d="M 278.941406 214.421875 L 326.753906 166.613281 L 374.9375 214.796875 L 327.125 262.609375 Z M 278.941406 214.421875 " clip-rule="nonzero"/></clipPath><clipPath id="a49b6e6ae5"><path d="M 282.125 211.242188 L 323.570312 169.792969 C 325.328125 168.035156 328.175781 168.035156 329.933594 169.792969 L 371.59375 211.453125 C 373.351562 213.210938 373.351562 216.058594 371.59375 217.816406 L 330.144531 259.261719 C 328.386719 261.019531 325.539062 261.019531 323.78125 259.265625 L 282.125 217.605469 C 280.367188 215.847656 280.367188 213 282.125 211.242188 Z M 282.125 211.242188 " clip-rule="nonzero"/></clipPath><clipPath id="f085216ad6"><path d="M 89 0 L 239 0 L 239 99 L 89 99 Z M 89 0 " clip-rule="nonzero"/></clipPath><clipPath id="dcaa5a36e4"><path d="M 87.074219 24.113281 L 164.433594 -53.246094 L 240.601562 22.921875 L 163.242188 100.28125 Z M 87.074219 24.113281 " clip-rule="nonzero"/></clipPath><clipPath id="08b2aaa05d"><path d="M 90.789062 20.398438 L 160.695312 -49.507812 C 161.679688 -50.492188 163.015625 -51.042969 164.40625 -51.042969 C 165.800781 -51.042969 167.132812 -50.492188 168.117188 -49.507812 L 236.863281 19.238281 C 237.847656 20.222656 238.398438 21.558594 238.398438 22.949219 C 238.398438 24.339844 237.847656 25.675781 236.863281 26.660156 L 166.957031 96.566406 C 165.972656 97.550781 164.636719 98.105469 163.242188 98.105469 C 161.851562 98.105469 160.515625 97.550781 159.53125 96.566406 L 90.789062 27.824219 C 89.804688 26.839844 89.25 25.503906 89.25 24.113281 C 89.25 22.71875 89.804688 21.382812 90.789062 20.398438 Z M 90.789062 20.398438 " clip-rule="nonzero"/></clipPath><clipPath id="ebdd0d44b5"><path d="M 25 87 L 118 87 L 118 180 L 25 180 Z M 25 87 " clip-rule="nonzero"/></clipPath><clipPath id="add217da38"><path d="M 23.144531 133.640625 L 70.953125 85.832031 L 119.140625 134.015625 L 71.328125 181.828125 Z M 23.144531 133.640625 " clip-rule="nonzero"/></clipPath><clipPath id="975983c250"><path d="M 26.324219 130.460938 L 67.773438 89.011719 C 69.53125 87.253906 72.378906 87.253906 74.136719 89.011719 L 115.792969 130.671875 C 117.550781 132.429688 117.550781 135.277344 115.792969 137.035156 L 74.347656 178.480469 C 72.589844 180.238281 69.742188 180.238281 67.984375 178.480469 L 26.324219 136.824219 C 24.566406 135.066406 24.566406 132.21875 26.324219 130.460938 Z M 26.324219 130.460938 " clip-rule="nonzero"/></clipPath><clipPath id="d3650b472a"><path d="M 0 133 L 53 133 L 53 283 L 0 283 Z M 0 133 " clip-rule="nonzero"/></clipPath><clipPath id="91ea501bee"><path d="M -22.375 131.242188 L 54.980469 208.597656 L -21.1875 284.765625 L -98.542969 207.410156 Z M -22.375 131.242188 " clip-rule="nonzero"/></clipPath><clipPath id="6bc8692c7f"><path d="M -18.664062 134.953125 L 51.242188 204.859375 C 52.226562 205.84375 52.777344 207.179688 52.78125 208.570312 C 52.777344 209.964844 52.226562 211.300781 51.242188 212.285156 L -17.5 281.027344 C -18.484375 282.011719 -19.820312 282.566406 -21.214844 282.566406 C -22.605469 282.566406 -23.941406 282.011719 -24.925781 281.027344 L -94.832031 211.121094 C -95.816406 210.136719 -96.371094 208.800781 -96.371094 207.410156 C -96.371094 206.015625 -95.816406 204.679688 -94.832031 203.695312 L -26.089844 134.953125 C -25.105469 133.96875 -23.769531 133.417969 -22.375 133.417969 C -20.984375 133.417969 -19.648438 133.96875 -18.664062 134.953125 Z M -18.664062 134.953125 " clip-rule="nonzero"/></clipPath><clipPath id="088aff6b1f"><path d="M 0 0 L 65 0 L 65 95 L 0 95 Z M 0 0 " clip-rule="nonzero"/></clipPath><clipPath id="b90dddbe4b"><path d="M -86.898438 20.054688 L -9.542969 -57.300781 L 66.625 18.863281 L -10.730469 96.222656 Z M -86.898438 20.054688 " clip-rule="nonzero"/></clipPath><clipPath id="eea7809ead"><path d="M -83.1875 16.34375 L -13.28125 -53.5625 C -12.296875 -54.546875 -10.960938 -55.101562 -9.566406 -55.101562 C -8.175781 -55.101562 -6.839844 -54.546875 -5.855469 -53.5625 L 62.886719 15.179688 C 63.871094 16.164062 64.425781 17.5 64.425781 18.890625 C 64.425781 20.285156 63.871094 21.621094 62.886719 22.605469 L -7.019531 92.511719 C -8.003906 93.496094 -9.339844 94.046875 -10.730469 94.046875 C -12.125 94.046875 -13.460938 93.496094 -14.445312 92.511719 L -83.1875 23.765625 C -84.171875 22.78125 -84.722656 21.449219 -84.722656 20.054688 C -84.722656 18.664062 -84.171875 17.328125 -83.1875 16.34375 Z M -83.1875 16.34375 " clip-rule="nonzero"/></clipPath><clipPath id="14c3a62f2d"><path d="M 280 0 L 375 0 L 375 40 L 280 40 Z M 280 0 " clip-rule="nonzero"/></clipPath><clipPath id="6c44e9040a"><path d="M 278.945312 -36.542969 L 359.082031 -116.679688 L 437.382812 -38.378906 L 357.246094 41.757812 Z M 278.945312 -36.542969 " clip-rule="nonzero"/></clipPath><clipPath id="eeab01e5a4"><path d="M 282.125 -39.726562 L 355.734375 -113.332031 C 357.492188 -115.089844 360.339844 -115.089844 362.097656 -113.332031 L 434.035156 -41.394531 C 435.792969 -39.636719 435.792969 -36.789062 434.035156 -35.03125 L 360.429688 38.578125 C 358.671875 40.335938 355.820312 40.335938 354.066406 38.578125 L 282.125 -33.363281 C 280.367188 -35.117188 280.367188 -37.96875 282.125 -39.726562 Z M 282.125 -39.726562 " clip-rule="nonzero"/></clipPath></defs><g clip-path="url(#d4eff28918)"><g clip-path="url(#850b4583b6)"><g clip-path="url(#e78750af76)"><path fill="#69e9f5" d="M 123.636719 376.324219 L 171.449219 328.515625 L 219.445312 376.511719 L 171.632812 424.324219 Z M 123.636719 376.324219 " fill-opacity="1" fill-rule="nonzero"/></g></g></g><g clip-path="url(#2454a78cbd)"><g clip-path="url(#54be66292f)"><g clip-path="url(#9b883476a6)"><path fill="#5954cd" d="M 183.109375 310.882812 L 262.941406 231.050781 L 341.246094 309.351562 L 261.414062 389.183594 Z M 183.109375 310.882812 " fill-opacity="1" fill-rule="nonzero"/></g></g></g><g clip-path="url(#996cbc893a)"><g clip-path="url(#8937d91acd)"><g clip-path="url(#c33e563262)"><path fill="#8a4bdb" d="M 164.285156 134.332031 L 241.644531 211.691406 L 165.476562 287.859375 L 88.117188 210.5 Z M 164.285156 134.332031 " fill-opacity="1" fill-rule="nonzero"/></g></g></g><g clip-path="url(#a96cddbe28)"><g clip-path="url(#2636a132d3)"><g clip-path="url(#cc8d6dfb1e)"><path fill="#8a4bdb" d="M 183.109375 121.285156 L 230.917969 73.472656 L 278.917969 121.472656 L 231.105469 169.28125 Z M 183.109375 121.285156 " fill-opacity="1" fill-rule="nonzero"/></g></g></g><g clip-path="url(#a13b42ef06)"><g clip-path="url(#409b592e01)"><g clip-path="url(#73cc8b3942)"><path fill="#31bdc6" d="M 335.5625 148.195312 L 412.917969 70.835938 L 489.085938 147.003906 L 411.730469 224.363281 Z M 335.5625 148.195312 " fill-opacity="1" fill-rule="nonzero"/></g></g></g><g clip-path="url(#5e24426c5c)"><g clip-path="url(#c17822a164)"><g clip-path="url(#7ef7308439)"><path fill="#31bdc6" d="M 245.550781 60.066406 L 293.359375 12.253906 L 341.359375 60.253906 L 293.546875 108.0625 Z M 245.550781 60.066406 " fill-opacity="1" fill-rule="nonzero"/></g></g></g><g clip-path="url(#3a292bf750)"><g clip-path="url(#372f5a3aaa)"><g clip-path="url(#4859b7d68e)"><path fill="#69e9f5" d="M -2.585938 308.164062 L 74.773438 230.808594 L 150.9375 306.976562 L 73.582031 384.332031 Z M -2.585938 308.164062 " fill-opacity="1" fill-rule="nonzero"/></g></g></g><g clip-path="url(#5633d25947)"><g clip-path="url(#a614293899)"><g clip-path="url(#6e37c81c9a)"><path fill="#5954cd" d="M 316.472656 376.324219 L 364.285156 328.515625 L 412.28125 376.511719 L 364.472656 424.324219 Z M 316.472656 376.324219 " fill-opacity="1" fill-rule="nonzero"/></g></g></g><g clip-path="url(#2f6735fc6c)"><g clip-path="url(#837cabd4f8)"><g clip-path="url(#a49b6e6ae5)"><path fill="#31bdc6" d="M 278.941406 214.421875 L 326.753906 166.613281 L 374.75 214.609375 L 326.941406 262.421875 Z M 278.941406 214.421875 " fill-opacity="1" fill-rule="nonzero"/></g></g></g><g clip-path="url(#f085216ad6)"><g clip-path="url(#dcaa5a36e4)"><g clip-path="url(#08b2aaa05d)"><path fill="#69e9f5" d="M 87.074219 24.113281 L 164.433594 -53.246094 L 240.601562 22.921875 L 163.242188 100.28125 Z M 87.074219 24.113281 " fill-opacity="1" fill-rule="nonzero"/></g></g></g><g clip-path="url(#ebdd0d44b5)"><g clip-path="url(#add217da38)"><g clip-path="url(#975983c250)"><path fill="#69e9f5" d="M 23.144531 133.640625 L 70.953125 85.832031 L 118.953125 133.828125 L 71.140625 181.640625 Z M 23.144531 133.640625 " fill-opacity="1" fill-rule="nonzero"/></g></g></g><g clip-path="url(#d3650b472a)"><g clip-path="url(#91ea501bee)"><g clip-path="url(#6bc8692c7f)"><path fill="#8a4bdb" d="M -22.375 131.242188 L 54.980469 208.597656 L -21.1875 284.765625 L -98.542969 207.410156 Z M -22.375 131.242188 " fill-opacity="1" fill-rule="nonzero"/></g></g></g><g clip-path="url(#088aff6b1f)"><g clip-path="url(#b90dddbe4b)"><g clip-path="url(#eea7809ead)"><path fill="#31bdc6" d="M -86.898438 20.054688 L -9.542969 -57.300781 L 66.625 18.863281 L -10.730469 96.222656 Z M -86.898438 20.054688 " fill-opacity="1" fill-rule="nonzero"/></g></g></g><g clip-path="url(#14c3a62f2d)"><g clip-path="url(#6c44e9040a)"><g clip-path="url(#eeab01e5a4)"><path fill="#5954cd" d="M 278.945312 -36.542969 L 358.777344 -116.375 L 437.078125 -38.074219 L 357.246094 41.757812 Z M 278.945312 -36.542969 " fill-opacity="1" fill-rule="nonzero"/></g></g></g></svg>