<svg xmlns="http://www.w3.org/2000/svg" xmlns:xlink="http://www.w3.org/1999/xlink" width="500" zoomAndPan="magnify" viewBox="0 0 375 374.999991" height="500" preserveAspectRatio="xMidYMid meet" version="1.0"><defs><radialGradient gradientTransform="matrix(1, 0, 0, 1, -10.163614, 0)" gradientUnits="userSpaceOnUse" r="281.566498" cx="209.411426" id="739c0a7bfb" cy="188.217814" fx="209.411426" fy="188.217814"><stop stop-opacity="1" stop-color="rgb(0.154114%, 29.025269%, 67.842102%)" offset="0"/><stop stop-opacity="1" stop-color="rgb(0.465393%, 29.077148%, 67.930603%)" offset="0.00390625"/><stop stop-opacity="1" stop-color="rgb(0.776672%, 29.130554%, 68.017578%)" offset="0.0078125"/><stop stop-opacity="1" stop-color="rgb(1.087952%, 29.182434%, 68.104553%)" offset="0.0117188"/><stop stop-opacity="1" stop-color="rgb(1.397705%, 29.234314%, 68.193054%)" offset="0.015625"/><stop stop-opacity="1" stop-color="rgb(1.708984%, 29.286194%, 68.280029%)" offset="0.0195312"/><stop stop-opacity="1" stop-color="rgb(2.020264%, 29.3396%, 68.367004%)" offset="0.0234375"/><stop stop-opacity="1" stop-color="rgb(2.331543%, 29.391479%, 68.455505%)" offset="0.0273438"/><stop stop-opacity="1" stop-color="rgb(2.641296%, 29.443359%, 68.54248%)" offset="0.03125"/><stop stop-opacity="1" stop-color="rgb(2.952576%, 29.496765%, 68.629456%)" offset="0.0351562"/><stop stop-opacity="1" stop-color="rgb(3.263855%, 29.548645%, 68.717957%)" offset="0.0390625"/><stop stop-opacity="1" stop-color="rgb(3.575134%, 29.600525%, 68.804932%)" offset="0.0429688"/><stop stop-opacity="1" stop-color="rgb(3.886414%, 29.653931%, 68.891907%)" offset="0.046875"/><stop stop-opacity="1" stop-color="rgb(4.196167%, 29.705811%, 68.980408%)" offset="0.0507812"/><stop stop-opacity="1" stop-color="rgb(4.507446%, 29.75769%, 69.067383%)" offset="0.0546875"/><stop stop-opacity="1" stop-color="rgb(4.818726%, 29.811096%, 69.154358%)" offset="0.0585938"/><stop stop-opacity="1" stop-color="rgb(5.130005%, 29.862976%, 69.242859%)" offset="0.0625"/><stop stop-opacity="1" stop-color="rgb(5.439758%, 29.914856%, 69.329834%)" offset="0.0664062"/><stop stop-opacity="1" stop-color="rgb(5.751038%, 29.966736%, 69.416809%)" offset="0.0703125"/><stop stop-opacity="1" stop-color="rgb(6.062317%, 30.020142%, 69.50531%)" offset="0.0742188"/><stop stop-opacity="1" stop-color="rgb(6.373596%, 30.072021%, 69.592285%)" offset="0.078125"/><stop stop-opacity="1" stop-color="rgb(6.684875%, 30.123901%, 69.67926%)" offset="0.0820312"/><stop stop-opacity="1" stop-color="rgb(6.994629%, 30.177307%, 69.767761%)" offset="0.0859375"/><stop stop-opacity="1" stop-color="rgb(7.305908%, 30.229187%, 69.854736%)" offset="0.0898438"/><stop stop-opacity="1" stop-color="rgb(7.617188%, 30.281067%, 69.943237%)" offset="0.09375"/><stop stop-opacity="1" stop-color="rgb(7.928467%, 30.334473%, 70.030212%)" offset="0.0976562"/><stop stop-opacity="1" stop-color="rgb(8.23822%, 30.386353%, 70.117188%)" offset="0.101562"/><stop stop-opacity="1" stop-color="rgb(8.5495%, 30.438232%, 70.205688%)" offset="0.105469"/><stop stop-opacity="1" stop-color="rgb(8.860779%, 30.490112%, 70.292664%)" offset="0.109375"/><stop stop-opacity="1" stop-color="rgb(9.172058%, 30.543518%, 70.379639%)" offset="0.113281"/><stop stop-opacity="1" stop-color="rgb(9.483337%, 30.595398%, 70.46814%)" offset="0.117188"/><stop stop-opacity="1" stop-color="rgb(9.793091%, 30.647278%, 70.555115%)" offset="0.121094"/><stop stop-opacity="1" stop-color="rgb(10.10437%, 30.700684%, 70.64209%)" offset="0.125"/><stop stop-opacity="1" stop-color="rgb(10.415649%, 30.752563%, 70.730591%)" offset="0.128906"/><stop stop-opacity="1" stop-color="rgb(10.726929%, 30.804443%, 70.817566%)" offset="0.132812"/><stop stop-opacity="1" stop-color="rgb(11.036682%, 30.857849%, 70.904541%)" offset="0.136719"/><stop stop-opacity="1" stop-color="rgb(11.347961%, 30.909729%, 70.993042%)" offset="0.140625"/><stop stop-opacity="1" stop-color="rgb(11.659241%, 30.961609%, 71.080017%)" offset="0.144531"/><stop stop-opacity="1" stop-color="rgb(11.97052%, 31.013489%, 71.166992%)" offset="0.148438"/><stop stop-opacity="1" stop-color="rgb(12.281799%, 31.066895%, 71.255493%)" offset="0.152344"/><stop stop-opacity="1" stop-color="rgb(12.591553%, 31.118774%, 71.342468%)" offset="0.15625"/><stop stop-opacity="1" stop-color="rgb(12.902832%, 31.170654%, 71.429443%)" offset="0.160156"/><stop stop-opacity="1" stop-color="rgb(13.214111%, 31.22406%, 71.517944%)" offset="0.164062"/><stop stop-opacity="1" stop-color="rgb(13.525391%, 31.27594%, 71.604919%)" offset="0.167969"/><stop stop-opacity="1" stop-color="rgb(13.835144%, 31.32782%, 71.691895%)" offset="0.171875"/><stop stop-opacity="1" stop-color="rgb(14.146423%, 31.381226%, 71.780396%)" offset="0.175781"/><stop stop-opacity="1" stop-color="rgb(14.457703%, 31.433105%, 71.867371%)" offset="0.179688"/><stop stop-opacity="1" stop-color="rgb(14.768982%, 31.484985%, 71.954346%)" offset="0.183594"/><stop stop-opacity="1" stop-color="rgb(15.080261%, 31.538391%, 72.042847%)" offset="0.1875"/><stop stop-opacity="1" stop-color="rgb(15.390015%, 31.590271%, 72.129822%)" offset="0.191406"/><stop stop-opacity="1" stop-color="rgb(15.701294%, 31.642151%, 72.216797%)" offset="0.195312"/><stop stop-opacity="1" stop-color="rgb(16.012573%, 31.694031%, 72.305298%)" offset="0.199219"/><stop stop-opacity="1" stop-color="rgb(16.323853%, 31.747437%, 72.392273%)" offset="0.203125"/><stop stop-opacity="1" stop-color="rgb(16.633606%, 31.799316%, 72.479248%)" offset="0.207031"/><stop stop-opacity="1" stop-color="rgb(16.944885%, 31.851196%, 72.567749%)" offset="0.210938"/><stop stop-opacity="1" stop-color="rgb(17.256165%, 31.904602%, 72.654724%)" offset="0.214844"/><stop stop-opacity="1" stop-color="rgb(17.567444%, 31.956482%, 72.743225%)" offset="0.21875"/><stop stop-opacity="1" stop-color="rgb(17.878723%, 32.008362%, 72.8302%)" offset="0.222656"/><stop stop-opacity="1" stop-color="rgb(18.188477%, 32.061768%, 72.917175%)" offset="0.226562"/><stop stop-opacity="1" stop-color="rgb(18.499756%, 32.113647%, 73.005676%)" offset="0.230469"/><stop stop-opacity="1" stop-color="rgb(18.811035%, 32.165527%, 73.092651%)" offset="0.234375"/><stop stop-opacity="1" stop-color="rgb(19.122314%, 32.217407%, 73.179626%)" offset="0.238281"/><stop stop-opacity="1" stop-color="rgb(19.432068%, 32.270813%, 73.268127%)" offset="0.242188"/><stop stop-opacity="1" stop-color="rgb(19.743347%, 32.322693%, 73.355103%)" offset="0.246094"/><stop stop-opacity="1" stop-color="rgb(20.054626%, 32.374573%, 73.442078%)" offset="0.25"/><stop stop-opacity="1" stop-color="rgb(20.365906%, 32.427979%, 73.530579%)" offset="0.253906"/><stop stop-opacity="1" stop-color="rgb(20.675659%, 32.479858%, 73.617554%)" offset="0.257812"/><stop stop-opacity="1" stop-color="rgb(20.986938%, 32.531738%, 73.704529%)" offset="0.261719"/><stop stop-opacity="1" stop-color="rgb(21.298218%, 32.585144%, 73.79303%)" offset="0.265625"/><stop stop-opacity="1" stop-color="rgb(21.609497%, 32.637024%, 73.880005%)" offset="0.269531"/><stop stop-opacity="1" stop-color="rgb(21.920776%, 32.688904%, 73.96698%)" offset="0.273438"/><stop stop-opacity="1" stop-color="rgb(22.23053%, 32.74231%, 74.055481%)" offset="0.277344"/><stop stop-opacity="1" stop-color="rgb(22.541809%, 32.794189%, 74.142456%)" offset="0.28125"/><stop stop-opacity="1" stop-color="rgb(22.853088%, 32.846069%, 74.229431%)" offset="0.285156"/><stop stop-opacity="1" stop-color="rgb(23.164368%, 32.897949%, 74.317932%)" offset="0.289062"/><stop stop-opacity="1" stop-color="rgb(23.474121%, 32.951355%, 74.404907%)" offset="0.292969"/><stop stop-opacity="1" stop-color="rgb(23.7854%, 33.003235%, 74.491882%)" offset="0.296875"/><stop stop-opacity="1" stop-color="rgb(24.09668%, 33.055115%, 74.580383%)" offset="0.300781"/><stop stop-opacity="1" stop-color="rgb(24.407959%, 33.108521%, 74.667358%)" offset="0.304688"/><stop stop-opacity="1" stop-color="rgb(24.719238%, 33.1604%, 74.754333%)" offset="0.308594"/><stop stop-opacity="1" stop-color="rgb(25.028992%, 33.21228%, 74.842834%)" offset="0.3125"/><stop stop-opacity="1" stop-color="rgb(25.340271%, 33.265686%, 74.92981%)" offset="0.316406"/><stop stop-opacity="1" stop-color="rgb(25.65155%, 33.317566%, 75.016785%)" offset="0.320312"/><stop stop-opacity="1" stop-color="rgb(25.96283%, 33.369446%, 75.105286%)" offset="0.324219"/><stop stop-opacity="1" stop-color="rgb(26.272583%, 33.421326%, 75.192261%)" offset="0.328125"/><stop stop-opacity="1" stop-color="rgb(26.583862%, 33.474731%, 75.279236%)" offset="0.332031"/><stop stop-opacity="1" stop-color="rgb(26.895142%, 33.526611%, 75.367737%)" offset="0.335938"/><stop stop-opacity="1" stop-color="rgb(27.206421%, 33.578491%, 75.454712%)" offset="0.339844"/><stop stop-opacity="1" stop-color="rgb(27.5177%, 33.631897%, 75.543213%)" offset="0.34375"/><stop stop-opacity="1" stop-color="rgb(27.827454%, 33.683777%, 75.630188%)" offset="0.347656"/><stop stop-opacity="1" stop-color="rgb(28.138733%, 33.735657%, 75.717163%)" offset="0.351562"/><stop stop-opacity="1" stop-color="rgb(28.450012%, 33.789062%, 75.805664%)" offset="0.355469"/><stop stop-opacity="1" stop-color="rgb(28.761292%, 33.840942%, 75.892639%)" offset="0.359375"/><stop stop-opacity="1" stop-color="rgb(29.071045%, 33.892822%, 75.979614%)" offset="0.363281"/><stop stop-opacity="1" stop-color="rgb(29.382324%, 33.946228%, 76.068115%)" offset="0.367188"/><stop stop-opacity="1" stop-color="rgb(29.693604%, 33.998108%, 76.15509%)" offset="0.371094"/><stop stop-opacity="1" stop-color="rgb(30.004883%, 34.049988%, 76.242065%)" offset="0.375"/><stop stop-opacity="1" stop-color="rgb(30.316162%, 34.101868%, 76.330566%)" offset="0.378906"/><stop stop-opacity="1" stop-color="rgb(30.625916%, 34.155273%, 76.417542%)" offset="0.382812"/><stop stop-opacity="1" stop-color="rgb(30.937195%, 34.207153%, 76.504517%)" offset="0.386719"/><stop stop-opacity="1" stop-color="rgb(31.248474%, 34.259033%, 76.593018%)" offset="0.390625"/><stop stop-opacity="1" stop-color="rgb(31.559753%, 34.312439%, 76.679993%)" offset="0.394531"/><stop stop-opacity="1" stop-color="rgb(31.869507%, 34.364319%, 76.766968%)" offset="0.398438"/><stop stop-opacity="1" stop-color="rgb(32.180786%, 34.416199%, 76.855469%)" offset="0.402344"/><stop stop-opacity="1" stop-color="rgb(32.492065%, 34.469604%, 76.942444%)" offset="0.40625"/><stop stop-opacity="1" stop-color="rgb(32.803345%, 34.521484%, 77.029419%)" offset="0.410156"/><stop stop-opacity="1" stop-color="rgb(33.114624%, 34.573364%, 77.11792%)" offset="0.414062"/><stop stop-opacity="1" stop-color="rgb(33.424377%, 34.625244%, 77.204895%)" offset="0.417969"/><stop stop-opacity="1" stop-color="rgb(33.735657%, 34.67865%, 77.29187%)" offset="0.421875"/><stop stop-opacity="1" stop-color="rgb(34.046936%, 34.73053%, 77.380371%)" offset="0.425781"/><stop stop-opacity="1" stop-color="rgb(34.358215%, 34.78241%, 77.467346%)" offset="0.429688"/><stop stop-opacity="1" stop-color="rgb(34.667969%, 34.835815%, 77.554321%)" offset="0.433594"/><stop stop-opacity="1" stop-color="rgb(34.979248%, 34.887695%, 77.642822%)" offset="0.4375"/><stop stop-opacity="1" stop-color="rgb(35.290527%, 34.939575%, 77.729797%)" offset="0.441406"/><stop stop-opacity="1" stop-color="rgb(35.601807%, 34.992981%, 77.816772%)" offset="0.445312"/><stop stop-opacity="1" stop-color="rgb(35.913086%, 35.044861%, 77.905273%)" offset="0.449219"/><stop stop-opacity="1" stop-color="rgb(36.222839%, 35.096741%, 77.992249%)" offset="0.453125"/><stop stop-opacity="1" stop-color="rgb(36.534119%, 35.150146%, 78.08075%)" offset="0.457031"/><stop stop-opacity="1" stop-color="rgb(36.845398%, 35.202026%, 78.167725%)" offset="0.460938"/><stop stop-opacity="1" stop-color="rgb(37.156677%, 35.253906%, 78.2547%)" offset="0.464844"/><stop stop-opacity="1" stop-color="rgb(37.466431%, 35.305786%, 78.343201%)" offset="0.46875"/><stop stop-opacity="1" stop-color="rgb(37.77771%, 35.359192%, 78.430176%)" offset="0.472656"/><stop stop-opacity="1" stop-color="rgb(38.088989%, 35.411072%, 78.517151%)" offset="0.476562"/><stop stop-opacity="1" stop-color="rgb(38.400269%, 35.462952%, 78.605652%)" offset="0.480469"/><stop stop-opacity="1" stop-color="rgb(38.711548%, 35.516357%, 78.692627%)" offset="0.484375"/><stop stop-opacity="1" stop-color="rgb(39.021301%, 35.568237%, 78.779602%)" offset="0.488281"/><stop stop-opacity="1" stop-color="rgb(39.332581%, 35.620117%, 78.868103%)" offset="0.492188"/><stop stop-opacity="1" stop-color="rgb(39.64386%, 35.673523%, 78.955078%)" offset="0.496094"/><stop stop-opacity="1" stop-color="rgb(39.955139%, 35.725403%, 79.042053%)" offset="0.5"/><stop stop-opacity="1" stop-color="rgb(40.264893%, 35.777283%, 79.130554%)" offset="0.503906"/><stop stop-opacity="1" stop-color="rgb(40.576172%, 35.829163%, 79.217529%)" offset="0.507812"/><stop stop-opacity="1" stop-color="rgb(40.887451%, 35.882568%, 79.304504%)" offset="0.511719"/><stop stop-opacity="1" stop-color="rgb(41.19873%, 35.934448%, 79.393005%)" offset="0.515625"/><stop stop-opacity="1" stop-color="rgb(41.508484%, 35.986328%, 79.47998%)" offset="0.519531"/><stop stop-opacity="1" stop-color="rgb(41.819763%, 36.039734%, 79.566956%)" offset="0.523438"/><stop stop-opacity="1" stop-color="rgb(42.131042%, 36.091614%, 79.655457%)" offset="0.527344"/><stop stop-opacity="1" stop-color="rgb(42.442322%, 36.143494%, 79.742432%)" offset="0.53125"/><stop stop-opacity="1" stop-color="rgb(42.753601%, 36.196899%, 79.829407%)" offset="0.535156"/><stop stop-opacity="1" stop-color="rgb(43.063354%, 36.248779%, 79.917908%)" offset="0.539062"/><stop stop-opacity="1" stop-color="rgb(43.374634%, 36.300659%, 80.004883%)" offset="0.542969"/><stop stop-opacity="1" stop-color="rgb(43.685913%, 36.354065%, 80.091858%)" offset="0.546875"/><stop stop-opacity="1" stop-color="rgb(43.997192%, 36.405945%, 80.180359%)" offset="0.550781"/><stop stop-opacity="1" stop-color="rgb(44.306946%, 36.457825%, 80.267334%)" offset="0.554688"/><stop stop-opacity="1" stop-color="rgb(44.618225%, 36.509705%, 80.354309%)" offset="0.558594"/><stop stop-opacity="1" stop-color="rgb(44.929504%, 36.56311%, 80.44281%)" offset="0.5625"/><stop stop-opacity="1" stop-color="rgb(45.240784%, 36.61499%, 80.529785%)" offset="0.566406"/><stop stop-opacity="1" stop-color="rgb(45.552063%, 36.66687%, 80.61676%)" offset="0.570312"/><stop stop-opacity="1" stop-color="rgb(45.861816%, 36.720276%, 80.705261%)" offset="0.574219"/><stop stop-opacity="1" stop-color="rgb(46.173096%, 36.772156%, 80.792236%)" offset="0.578125"/><stop stop-opacity="1" stop-color="rgb(46.484375%, 36.824036%, 80.880737%)" offset="0.582031"/><stop stop-opacity="1" stop-color="rgb(46.795654%, 36.877441%, 80.967712%)" offset="0.585938"/><stop stop-opacity="1" stop-color="rgb(47.105408%, 36.929321%, 81.054688%)" offset="0.589844"/><stop stop-opacity="1" stop-color="rgb(47.416687%, 36.981201%, 81.143188%)" offset="0.59375"/><stop stop-opacity="1" stop-color="rgb(47.727966%, 37.033081%, 81.230164%)" offset="0.597656"/><stop stop-opacity="1" stop-color="rgb(48.039246%, 37.086487%, 81.317139%)" offset="0.601562"/><stop stop-opacity="1" stop-color="rgb(48.350525%, 37.138367%, 81.40564%)" offset="0.605469"/><stop stop-opacity="1" stop-color="rgb(48.660278%, 37.190247%, 81.492615%)" offset="0.609375"/><stop stop-opacity="1" stop-color="rgb(48.971558%, 37.243652%, 81.57959%)" offset="0.613281"/><stop stop-opacity="1" stop-color="rgb(49.282837%, 37.295532%, 81.668091%)" offset="0.617188"/><stop stop-opacity="1" stop-color="rgb(49.594116%, 37.347412%, 81.755066%)" offset="0.621094"/><stop stop-opacity="1" stop-color="rgb(49.90387%, 37.400818%, 81.842041%)" offset="0.625"/><stop stop-opacity="1" stop-color="rgb(50.215149%, 37.452698%, 81.930542%)" offset="0.628906"/><stop stop-opacity="1" stop-color="rgb(50.526428%, 37.504578%, 82.017517%)" offset="0.632812"/><stop stop-opacity="1" stop-color="rgb(50.837708%, 37.556458%, 82.104492%)" offset="0.636719"/><stop stop-opacity="1" stop-color="rgb(51.148987%, 37.609863%, 82.192993%)" offset="0.640625"/><stop stop-opacity="1" stop-color="rgb(51.45874%, 37.661743%, 82.279968%)" offset="0.644531"/><stop stop-opacity="1" stop-color="rgb(51.77002%, 37.713623%, 82.366943%)" offset="0.648438"/><stop stop-opacity="1" stop-color="rgb(52.081299%, 37.767029%, 82.455444%)" offset="0.652344"/><stop stop-opacity="1" stop-color="rgb(52.392578%, 37.818909%, 82.542419%)" offset="0.65625"/><stop stop-opacity="1" stop-color="rgb(52.702332%, 37.870789%, 82.629395%)" offset="0.660156"/><stop stop-opacity="1" stop-color="rgb(53.013611%, 37.924194%, 82.717896%)" offset="0.664062"/><stop stop-opacity="1" stop-color="rgb(53.32489%, 37.976074%, 82.804871%)" offset="0.667969"/><stop stop-opacity="1" stop-color="rgb(53.636169%, 38.027954%, 82.891846%)" offset="0.671875"/><stop stop-opacity="1" stop-color="rgb(53.947449%, 38.08136%, 82.980347%)" offset="0.675781"/><stop stop-opacity="1" stop-color="rgb(54.257202%, 38.13324%, 83.067322%)" offset="0.679688"/><stop stop-opacity="1" stop-color="rgb(54.568481%, 38.18512%, 83.154297%)" offset="0.683594"/><stop stop-opacity="1" stop-color="rgb(54.879761%, 38.237%, 83.242798%)" offset="0.6875"/><stop stop-opacity="1" stop-color="rgb(55.19104%, 38.290405%, 83.329773%)" offset="0.691406"/><stop stop-opacity="1" stop-color="rgb(55.500793%, 38.342285%, 83.416748%)" offset="0.695312"/><stop stop-opacity="1" stop-color="rgb(55.812073%, 38.394165%, 83.505249%)" offset="0.699219"/><stop stop-opacity="1" stop-color="rgb(56.123352%, 38.447571%, 83.592224%)" offset="0.703125"/><stop stop-opacity="1" stop-color="rgb(56.434631%, 38.499451%, 83.680725%)" offset="0.707031"/><stop stop-opacity="1" stop-color="rgb(56.745911%, 38.551331%, 83.7677%)" offset="0.710938"/><stop stop-opacity="1" stop-color="rgb(57.055664%, 38.604736%, 83.854675%)" offset="0.714844"/><stop stop-opacity="1" stop-color="rgb(57.366943%, 38.656616%, 83.943176%)" offset="0.71875"/><stop stop-opacity="1" stop-color="rgb(57.678223%, 38.708496%, 84.030151%)" offset="0.722656"/><stop stop-opacity="1" stop-color="rgb(57.989502%, 38.760376%, 84.117126%)" offset="0.726562"/><stop stop-opacity="1" stop-color="rgb(58.299255%, 38.813782%, 84.205627%)" offset="0.730469"/><stop stop-opacity="1" stop-color="rgb(58.610535%, 38.865662%, 84.292603%)" offset="0.734375"/><stop stop-opacity="1" stop-color="rgb(58.921814%, 38.917542%, 84.379578%)" offset="0.738281"/><stop stop-opacity="1" stop-color="rgb(59.233093%, 38.970947%, 84.468079%)" offset="0.742188"/><stop stop-opacity="1" stop-color="rgb(59.542847%, 39.022827%, 84.555054%)" offset="0.746094"/><stop stop-opacity="1" stop-color="rgb(59.854126%, 39.074707%, 84.642029%)" offset="0.75"/><stop stop-opacity="1" stop-color="rgb(60.165405%, 39.128113%, 84.73053%)" offset="0.753906"/><stop stop-opacity="1" stop-color="rgb(60.476685%, 39.179993%, 84.817505%)" offset="0.757812"/><stop stop-opacity="1" stop-color="rgb(60.787964%, 39.231873%, 84.90448%)" offset="0.761719"/><stop stop-opacity="1" stop-color="rgb(61.097717%, 39.285278%, 84.992981%)" offset="0.765625"/><stop stop-opacity="1" stop-color="rgb(61.408997%, 39.337158%, 85.079956%)" offset="0.769531"/><stop stop-opacity="1" stop-color="rgb(61.720276%, 39.389038%, 85.166931%)" offset="0.773438"/><stop stop-opacity="1" stop-color="rgb(62.031555%, 39.440918%, 85.255432%)" offset="0.777344"/><stop stop-opacity="1" stop-color="rgb(62.341309%, 39.494324%, 85.342407%)" offset="0.78125"/><stop stop-opacity="1" stop-color="rgb(62.652588%, 39.546204%, 85.429382%)" offset="0.785156"/><stop stop-opacity="1" stop-color="rgb(62.963867%, 39.598083%, 85.517883%)" offset="0.789062"/><stop stop-opacity="1" stop-color="rgb(63.275146%, 39.651489%, 85.604858%)" offset="0.792969"/><stop stop-opacity="1" stop-color="rgb(63.586426%, 39.703369%, 85.691833%)" offset="0.796875"/><stop stop-opacity="1" stop-color="rgb(63.896179%, 39.755249%, 85.780334%)" offset="0.800781"/><stop stop-opacity="1" stop-color="rgb(64.207458%, 39.808655%, 85.86731%)" offset="0.804688"/><stop stop-opacity="1" stop-color="rgb(64.518738%, 39.860535%, 85.954285%)" offset="0.808594"/><stop stop-opacity="1" stop-color="rgb(64.830017%, 39.912415%, 86.042786%)" offset="0.8125"/><stop stop-opacity="1" stop-color="rgb(65.139771%, 39.964294%, 86.129761%)" offset="0.816406"/><stop stop-opacity="1" stop-color="rgb(65.45105%, 40.0177%, 86.216736%)" offset="0.820312"/><stop stop-opacity="1" stop-color="rgb(65.762329%, 40.06958%, 86.305237%)" offset="0.824219"/><stop stop-opacity="1" stop-color="rgb(66.073608%, 40.12146%, 86.392212%)" offset="0.828125"/><stop stop-opacity="1" stop-color="rgb(66.384888%, 40.174866%, 86.480713%)" offset="0.832031"/><stop stop-opacity="1" stop-color="rgb(66.694641%, 40.226746%, 86.567688%)" offset="0.835938"/><stop stop-opacity="1" stop-color="rgb(67.00592%, 40.278625%, 86.654663%)" offset="0.839844"/><stop stop-opacity="1" stop-color="rgb(67.3172%, 40.332031%, 86.743164%)" offset="0.84375"/><stop stop-opacity="1" stop-color="rgb(67.628479%, 40.383911%, 86.830139%)" offset="0.847656"/><stop stop-opacity="1" stop-color="rgb(67.938232%, 40.435791%, 86.917114%)" offset="0.851562"/><stop stop-opacity="1" stop-color="rgb(68.249512%, 40.489197%, 87.005615%)" offset="0.855469"/><stop stop-opacity="1" stop-color="rgb(68.560791%, 40.541077%, 87.09259%)" offset="0.859375"/><stop stop-opacity="1" stop-color="rgb(68.87207%, 40.592957%, 87.179565%)" offset="0.863281"/><stop stop-opacity="1" stop-color="rgb(69.18335%, 40.644836%, 87.268066%)" offset="0.867188"/><stop stop-opacity="1" stop-color="rgb(69.493103%, 40.698242%, 87.355042%)" offset="0.871094"/><stop stop-opacity="1" stop-color="rgb(69.804382%, 40.750122%, 87.442017%)" offset="0.875"/><stop stop-opacity="1" stop-color="rgb(70.115662%, 40.802002%, 87.530518%)" offset="0.878906"/><stop stop-opacity="1" stop-color="rgb(70.426941%, 40.855408%, 87.617493%)" offset="0.882812"/><stop stop-opacity="1" stop-color="rgb(70.736694%, 40.907288%, 87.704468%)" offset="0.886719"/><stop stop-opacity="1" stop-color="rgb(71.047974%, 40.959167%, 87.792969%)" offset="0.890625"/><stop stop-opacity="1" stop-color="rgb(71.359253%, 41.012573%, 87.879944%)" offset="0.894531"/><stop stop-opacity="1" stop-color="rgb(71.670532%, 41.064453%, 87.966919%)" offset="0.898438"/><stop stop-opacity="1" stop-color="rgb(71.981812%, 41.116333%, 88.05542%)" offset="0.902344"/><stop stop-opacity="1" stop-color="rgb(72.291565%, 41.168213%, 88.142395%)" offset="0.90625"/><stop stop-opacity="1" stop-color="rgb(72.602844%, 41.221619%, 88.22937%)" offset="0.910156"/><stop stop-opacity="1" stop-color="rgb(72.914124%, 41.273499%, 88.317871%)" offset="0.914062"/><stop stop-opacity="1" stop-color="rgb(73.225403%, 41.325378%, 88.404846%)" offset="0.917969"/><stop stop-opacity="1" stop-color="rgb(73.535156%, 41.378784%, 88.491821%)" offset="0.921875"/><stop stop-opacity="1" stop-color="rgb(73.846436%, 41.430664%, 88.580322%)" offset="0.925781"/><stop stop-opacity="1" stop-color="rgb(74.157715%, 41.482544%, 88.667297%)" offset="0.929688"/><stop stop-opacity="1" stop-color="rgb(74.468994%, 41.53595%, 88.754272%)" offset="0.933594"/><stop stop-opacity="1" stop-color="rgb(74.780273%, 41.58783%, 88.842773%)" offset="0.9375"/><stop stop-opacity="1" stop-color="rgb(75.090027%, 41.639709%, 88.929749%)" offset="0.941406"/><stop stop-opacity="1" stop-color="rgb(75.401306%, 41.693115%, 89.01825%)" offset="0.945312"/><stop stop-opacity="1" stop-color="rgb(75.712585%, 41.744995%, 89.105225%)" offset="0.949219"/><stop stop-opacity="1" stop-color="rgb(76.023865%, 41.796875%, 89.1922%)" offset="0.953125"/><stop stop-opacity="1" stop-color="rgb(76.333618%, 41.848755%, 89.280701%)" offset="0.957031"/><stop stop-opacity="1" stop-color="rgb(76.644897%, 41.902161%, 89.367676%)" offset="0.960938"/><stop stop-opacity="1" stop-color="rgb(76.956177%, 41.954041%, 89.454651%)" offset="0.964844"/><stop stop-opacity="1" stop-color="rgb(77.267456%, 42.00592%, 89.543152%)" offset="0.96875"/><stop stop-opacity="1" stop-color="rgb(77.578735%, 42.059326%, 89.630127%)" offset="0.972656"/><stop stop-opacity="1" stop-color="rgb(77.888489%, 42.111206%, 89.717102%)" offset="0.976562"/><stop stop-opacity="1" stop-color="rgb(78.199768%, 42.163086%, 89.805603%)" offset="0.980469"/><stop stop-opacity="1" stop-color="rgb(78.511047%, 42.216492%, 89.892578%)" offset="0.984375"/><stop stop-opacity="1" stop-color="rgb(78.822327%, 42.268372%, 89.979553%)" offset="0.988281"/><stop stop-opacity="1" stop-color="rgb(79.13208%, 42.320251%, 90.068054%)" offset="0.992188"/><stop stop-opacity="1" stop-color="rgb(79.443359%, 42.372131%, 90.155029%)" offset="0.996094"/><stop stop-opacity="1" stop-color="rgb(79.598999%, 42.399597%, 90.19928%)" offset="1"/></radialGradient><clipPath id="2e28ad6dad"><path d="M 125 330 L 218 330 L 218 375 L 125 375 Z M 125 330 " clip-rule="nonzero"/></clipPath><clipPath id="b55e25148e"><path d="M 123.636719 376.324219 L 171.449219 328.515625 L 219.632812 376.699219 L 171.820312 424.511719 Z M 123.636719 376.324219 " clip-rule="nonzero"/></clipPath><clipPath id="dd33f63267"><path d="M 126.816406 373.144531 L 168.265625 331.695312 C 170.023438 329.9375 172.871094 329.941406 174.628906 331.695312 L 216.289062 373.355469 C 218.046875 375.113281 218.046875 377.960938 216.289062 379.71875 L 174.839844 421.167969 C 173.082031 422.921875 170.234375 422.921875 168.476562 421.167969 L 126.816406 379.507812 C 125.0625 377.75 125.0625 374.902344 126.816406 373.144531 Z M 126.816406 373.144531 " clip-rule="nonzero"/></clipPath><clipPath id="2b8def22ae"><path d="M 185 233 L 340 233 L 340 375 L 185 375 Z M 185 233 " clip-rule="nonzero"/></clipPath><clipPath id="6cfe137267"><path d="M 183.109375 310.882812 L 263.25 230.746094 L 341.550781 309.046875 L 261.414062 389.183594 Z M 183.109375 310.882812 " clip-rule="nonzero"/></clipPath><clipPath id="60cdd3c118"><path d="M 186.824219 307.167969 L 259.371094 234.621094 C 260.355469 233.636719 261.691406 233.085938 263.082031 233.085938 C 264.476562 233.085938 265.8125 233.636719 266.796875 234.621094 L 337.671875 305.5 C 338.65625 306.484375 339.210938 307.820312 339.210938 309.210938 C 339.210938 310.605469 338.65625 311.941406 337.671875 312.925781 L 265.125 385.472656 C 264.140625 386.457031 262.804688 387.011719 261.414062 387.011719 C 260.019531 387.011719 258.683594 386.457031 257.699219 385.472656 L 186.824219 314.59375 C 185.839844 313.609375 185.285156 312.273438 185.285156 310.882812 C 185.285156 309.488281 185.839844 308.152344 186.824219 307.167969 Z M 186.824219 307.167969 " clip-rule="nonzero"/></clipPath><clipPath id="dc9d94ea82"><path d="M 90 136 L 240 136 L 240 286 L 90 286 Z M 90 136 " clip-rule="nonzero"/></clipPath><clipPath id="8f7a51eefc"><path d="M 164.285156 134.332031 L 241.644531 211.691406 L 165.476562 287.859375 L 88.117188 210.5 Z M 164.285156 134.332031 " clip-rule="nonzero"/></clipPath><clipPath id="47e2247ed4"><path d="M 168 138.042969 L 237.90625 207.949219 C 238.890625 208.933594 239.441406 210.269531 239.441406 211.664062 C 239.441406 213.054688 238.890625 214.390625 237.90625 215.375 L 169.160156 284.117188 C 168.175781 285.101562 166.839844 285.65625 165.449219 285.65625 C 164.058594 285.65625 162.722656 285.101562 161.738281 284.117188 L 91.832031 214.210938 C 90.847656 213.226562 90.292969 211.890625 90.292969 210.5 C 90.292969 209.109375 90.847656 207.773438 91.832031 206.789062 L 160.574219 138.042969 C 161.558594 137.058594 162.894531 136.507812 164.285156 136.507812 C 165.679688 136.507812 167.015625 137.058594 168 138.042969 Z M 168 138.042969 " clip-rule="nonzero"/></clipPath><clipPath id="8688779e25"><path d="M 184 75 L 278 75 L 278 168 L 184 168 Z M 184 75 " clip-rule="nonzero"/></clipPath><clipPath id="49bb6cef7b"><path d="M 183.109375 121.285156 L 230.917969 73.472656 L 279.105469 121.65625 L 231.292969 169.46875 Z M 183.109375 121.285156 " clip-rule="nonzero"/></clipPath><clipPath id="a71a9959f3"><path d="M 186.289062 118.101562 L 227.738281 76.65625 C 229.496094 74.898438 232.34375 74.898438 234.101562 76.65625 L 275.761719 118.3125 C 277.515625 120.070312 277.515625 122.917969 275.761719 124.675781 L 234.3125 166.125 C 232.554688 167.882812 229.707031 167.882812 227.949219 166.125 L 186.289062 124.464844 C 184.53125 122.707031 184.53125 119.859375 186.289062 118.101562 Z M 186.289062 118.101562 " clip-rule="nonzero"/></clipPath><clipPath id="332cb2365e"><path d="M 337 73 L 375 73 L 375 223 L 337 223 Z M 337 73 " clip-rule="nonzero"/></clipPath><clipPath id="22900292cf"><path d="M 335.5625 148.195312 L 412.917969 70.835938 L 489.085938 147.003906 L 411.730469 224.363281 Z M 335.5625 148.195312 " clip-rule="nonzero"/></clipPath><clipPath id="e55e938ac3"><path d="M 339.273438 144.480469 L 409.179688 74.574219 C 410.164062 73.589844 411.5 73.039062 412.890625 73.039062 C 414.285156 73.039062 415.621094 73.589844 416.605469 74.574219 L 485.347656 143.320312 C 486.332031 144.304688 486.882812 145.636719 486.882812 147.03125 C 486.882812 148.421875 486.332031 149.757812 485.347656 150.742188 L 415.441406 220.648438 C 414.457031 221.632812 413.121094 222.1875 411.730469 222.1875 C 410.335938 222.1875 409 221.632812 408.015625 220.648438 L 339.273438 151.90625 C 338.289062 150.921875 337.734375 149.585938 337.734375 148.195312 C 337.734375 146.800781 338.289062 145.464844 339.273438 144.480469 Z M 339.273438 144.480469 " clip-rule="nonzero"/></clipPath><clipPath id="7f53fd6188"><path d="M 247 14 L 340 14 L 340 107 L 247 107 Z M 247 14 " clip-rule="nonzero"/></clipPath><clipPath id="1578202953"><path d="M 245.550781 60.066406 L 293.359375 12.253906 L 341.546875 60.441406 L 293.734375 108.25 Z M 245.550781 60.066406 " clip-rule="nonzero"/></clipPath><clipPath id="8dd4da23d1"><path d="M 248.730469 56.882812 L 290.179688 15.4375 C 291.9375 13.679688 294.785156 13.679688 296.542969 15.4375 L 338.199219 57.09375 C 339.957031 58.851562 339.957031 61.703125 338.199219 63.460938 L 296.753906 104.90625 C 294.996094 106.664062 292.148438 106.664062 290.390625 104.90625 L 248.730469 63.25 C 246.972656 61.492188 246.972656 58.640625 248.730469 56.882812 Z M 248.730469 56.882812 " clip-rule="nonzero"/></clipPath><clipPath id="255ebcd950"><path d="M 0 233 L 149 233 L 149 375 L 0 375 Z M 0 233 " clip-rule="nonzero"/></clipPath><clipPath id="7b0abfd411"><path d="M -2.585938 308.164062 L 74.773438 230.808594 L 150.9375 306.976562 L 73.582031 384.332031 Z M -2.585938 308.164062 " clip-rule="nonzero"/></clipPath><clipPath id="35f8149843"><path d="M 1.125 304.453125 L 71.03125 234.546875 C 72.015625 233.5625 73.351562 233.007812 74.746094 233.007812 C 76.136719 233.007812 77.472656 233.5625 78.457031 234.546875 L 147.199219 303.289062 C 148.183594 304.273438 148.738281 305.609375 148.738281 307 C 148.738281 308.394531 148.183594 309.730469 147.199219 310.714844 L 77.292969 380.621094 C 76.308594 381.605469 74.972656 382.15625 73.582031 382.15625 C 72.191406 382.15625 70.855469 381.605469 69.871094 380.621094 L 1.125 311.878906 C 0.140625 310.894531 -0.410156 309.558594 -0.410156 308.164062 C -0.410156 306.773438 0.140625 305.4375 1.125 304.453125 Z M 1.125 304.453125 " clip-rule="nonzero"/></clipPath><clipPath id="f9f87f6bfa"><path d="M 318 330 L 375 330 L 375 375 L 318 375 Z M 318 330 " clip-rule="nonzero"/></clipPath><clipPath id="1d89d078f9"><path d="M 316.472656 376.324219 L 364.285156 328.515625 L 412.46875 376.699219 L 364.65625 424.511719 Z M 316.472656 376.324219 " clip-rule="nonzero"/></clipPath><clipPath id="6a7ac06624"><path d="M 319.65625 373.144531 L 361.101562 331.695312 C 362.859375 329.9375 365.710938 329.941406 367.464844 331.695312 L 409.125 373.355469 C 410.882812 375.113281 410.882812 377.960938 409.125 379.71875 L 367.675781 421.167969 C 365.921875 422.921875 363.070312 422.921875 361.3125 421.167969 L 319.65625 379.507812 C 317.898438 377.75 317.898438 374.902344 319.65625 373.144531 Z M 319.65625 373.144531 " clip-rule="nonzero"/></clipPath><clipPath id="6c9fe2ab3d"><path d="M 280 168 L 373 168 L 373 261 L 280 261 Z M 280 168 " clip-rule="nonzero"/></clipPath><clipPath id="8554517cb6"><path d="M 278.941406 214.421875 L 326.753906 166.613281 L 374.9375 214.796875 L 327.125 262.609375 Z M 278.941406 214.421875 " clip-rule="nonzero"/></clipPath><clipPath id="d8d9ed2362"><path d="M 282.125 211.242188 L 323.570312 169.792969 C 325.328125 168.035156 328.175781 168.035156 329.933594 169.792969 L 371.59375 211.453125 C 373.351562 213.210938 373.351562 216.058594 371.59375 217.816406 L 330.144531 259.261719 C 328.386719 261.019531 325.539062 261.019531 323.78125 259.265625 L 282.125 217.605469 C 280.367188 215.847656 280.367188 213 282.125 211.242188 Z M 282.125 211.242188 " clip-rule="nonzero"/></clipPath><clipPath id="037c7d7c77"><path d="M 89 0 L 239 0 L 239 99 L 89 99 Z M 89 0 " clip-rule="nonzero"/></clipPath><clipPath id="cb4c7071ec"><path d="M 87.074219 24.113281 L 164.433594 -53.246094 L 240.601562 22.921875 L 163.242188 100.28125 Z M 87.074219 24.113281 " clip-rule="nonzero"/></clipPath><clipPath id="225cd5c957"><path d="M 90.789062 20.398438 L 160.695312 -49.507812 C 161.679688 -50.492188 163.015625 -51.042969 164.40625 -51.042969 C 165.800781 -51.042969 167.132812 -50.492188 168.117188 -49.507812 L 236.863281 19.238281 C 237.847656 20.222656 238.398438 21.558594 238.398438 22.949219 C 238.398438 24.339844 237.847656 25.675781 236.863281 26.660156 L 166.957031 96.566406 C 165.972656 97.550781 164.636719 98.105469 163.242188 98.105469 C 161.851562 98.105469 160.515625 97.550781 159.53125 96.566406 L 90.789062 27.824219 C 89.804688 26.839844 89.25 25.503906 89.25 24.113281 C 89.25 22.71875 89.804688 21.382812 90.789062 20.398438 Z M 90.789062 20.398438 " clip-rule="nonzero"/></clipPath><clipPath id="b417087f0b"><path d="M 25 87 L 118 87 L 118 180 L 25 180 Z M 25 87 " clip-rule="nonzero"/></clipPath><clipPath id="115140cdf1"><path d="M 23.144531 133.640625 L 70.953125 85.832031 L 119.140625 134.015625 L 71.328125 181.828125 Z M 23.144531 133.640625 " clip-rule="nonzero"/></clipPath><clipPath id="402ecad75f"><path d="M 26.324219 130.460938 L 67.773438 89.011719 C 69.53125 87.253906 72.378906 87.253906 74.136719 89.011719 L 115.792969 130.671875 C 117.550781 132.429688 117.550781 135.277344 115.792969 137.035156 L 74.347656 178.480469 C 72.589844 180.238281 69.742188 180.238281 67.984375 178.480469 L 26.324219 136.824219 C 24.566406 135.066406 24.566406 132.21875 26.324219 130.460938 Z M 26.324219 130.460938 " clip-rule="nonzero"/></clipPath><clipPath id="2716d71486"><path d="M 0 133 L 53 133 L 53 283 L 0 283 Z M 0 133 " clip-rule="nonzero"/></clipPath><clipPath id="39db30d347"><path d="M -22.375 131.242188 L 54.980469 208.597656 L -21.1875 284.765625 L -98.542969 207.410156 Z M -22.375 131.242188 " clip-rule="nonzero"/></clipPath><clipPath id="eb7a4ede37"><path d="M -18.664062 134.953125 L 51.242188 204.859375 C 52.226562 205.84375 52.777344 207.179688 52.78125 208.570312 C 52.777344 209.964844 52.226562 211.300781 51.242188 212.285156 L -17.5 281.027344 C -18.484375 282.011719 -19.820312 282.566406 -21.214844 282.566406 C -22.605469 282.566406 -23.941406 282.011719 -24.925781 281.027344 L -94.832031 211.121094 C -95.816406 210.136719 -96.371094 208.800781 -96.371094 207.410156 C -96.371094 206.015625 -95.816406 204.679688 -94.832031 203.695312 L -26.089844 134.953125 C -25.105469 133.96875 -23.769531 133.417969 -22.375 133.417969 C -20.984375 133.417969 -19.648438 133.96875 -18.664062 134.953125 Z M -18.664062 134.953125 " clip-rule="nonzero"/></clipPath><clipPath id="b0f5566f38"><path d="M 0 0 L 65 0 L 65 95 L 0 95 Z M 0 0 " clip-rule="nonzero"/></clipPath><clipPath id="8f45017469"><path d="M -86.898438 20.054688 L -9.542969 -57.300781 L 66.625 18.863281 L -10.730469 96.222656 Z M -86.898438 20.054688 " clip-rule="nonzero"/></clipPath><clipPath id="6f3d33d48f"><path d="M -83.1875 16.34375 L -13.28125 -53.5625 C -12.296875 -54.546875 -10.960938 -55.101562 -9.566406 -55.101562 C -8.175781 -55.101562 -6.839844 -54.546875 -5.855469 -53.5625 L 62.886719 15.179688 C 63.871094 16.164062 64.425781 17.5 64.425781 18.890625 C 64.425781 20.285156 63.871094 21.621094 62.886719 22.605469 L -7.019531 92.511719 C -8.003906 93.496094 -9.339844 94.046875 -10.730469 94.046875 C -12.125 94.046875 -13.460938 93.496094 -14.445312 92.511719 L -83.1875 23.765625 C -84.171875 22.78125 -84.722656 21.449219 -84.722656 20.054688 C -84.722656 18.664062 -84.171875 17.328125 -83.1875 16.34375 Z M -83.1875 16.34375 " clip-rule="nonzero"/></clipPath><clipPath id="34d28067f3"><path d="M 280 0 L 375 0 L 375 40 L 280 40 Z M 280 0 " clip-rule="nonzero"/></clipPath><clipPath id="ce00e6d28e"><path d="M 278.945312 -36.542969 L 359.082031 -116.679688 L 437.382812 -38.378906 L 357.246094 41.757812 Z M 278.945312 -36.542969 " clip-rule="nonzero"/></clipPath><clipPath id="9d1d0ce29b"><path d="M 282.125 -39.726562 L 355.734375 -113.332031 C 357.492188 -115.089844 360.339844 -115.089844 362.097656 -113.332031 L 434.035156 -41.394531 C 435.792969 -39.636719 435.792969 -36.789062 434.035156 -35.03125 L 360.429688 38.578125 C 358.671875 40.335938 355.820312 40.335938 354.066406 38.578125 L 282.125 -33.363281 C 280.367188 -35.117188 280.367188 -37.96875 282.125 -39.726562 Z M 282.125 -39.726562 " clip-rule="nonzero"/></clipPath></defs><rect x="-37.5" fill="url(#739c0a7bfb)" width="450" y="-37.499999" height="449.999989"/><g clip-path="url(#2e28ad6dad)"><g clip-path="url(#b55e25148e)"><g clip-path="url(#dd33f63267)"><path fill="#69e9f5" d="M 123.636719 376.324219 L 171.449219 328.515625 L 219.445312 376.511719 L 171.632812 424.324219 Z M 123.636719 376.324219 " fill-opacity="1" fill-rule="nonzero"/></g></g></g><g clip-path="url(#2b8def22ae)"><g clip-path="url(#6cfe137267)"><g clip-path="url(#60cdd3c118)"><path fill="#5954cd" d="M 183.109375 310.882812 L 262.941406 231.050781 L 341.246094 309.351562 L 261.414062 389.183594 Z M 183.109375 310.882812 " fill-opacity="1" fill-rule="nonzero"/></g></g></g><g clip-path="url(#dc9d94ea82)"><g clip-path="url(#8f7a51eefc)"><g clip-path="url(#47e2247ed4)"><path fill="#8a4bdb" d="M 164.285156 134.332031 L 241.644531 211.691406 L 165.476562 287.859375 L 88.117188 210.5 Z M 164.285156 134.332031 " fill-opacity="1" fill-rule="nonzero"/></g></g></g><g clip-path="url(#8688779e25)"><g clip-path="url(#49bb6cef7b)"><g clip-path="url(#a71a9959f3)"><path fill="#8a4bdb" d="M 183.109375 121.285156 L 230.917969 73.472656 L 278.917969 121.472656 L 231.105469 169.28125 Z M 183.109375 121.285156 " fill-opacity="1" fill-rule="nonzero"/></g></g></g><g clip-path="url(#332cb2365e)"><g clip-path="url(#22900292cf)"><g clip-path="url(#e55e938ac3)"><path fill="#31bdc6" d="M 335.5625 148.195312 L 412.917969 70.835938 L 489.085938 147.003906 L 411.730469 224.363281 Z M 335.5625 148.195312 " fill-opacity="1" fill-rule="nonzero"/></g></g></g><g clip-path="url(#7f53fd6188)"><g clip-path="url(#1578202953)"><g clip-path="url(#8dd4da23d1)"><path fill="#31bdc6" d="M 245.550781 60.066406 L 293.359375 12.253906 L 341.359375 60.253906 L 293.546875 108.0625 Z M 245.550781 60.066406 " fill-opacity="1" fill-rule="nonzero"/></g></g></g><g clip-path="url(#255ebcd950)"><g clip-path="url(#7b0abfd411)"><g clip-path="url(#35f8149843)"><path fill="#69e9f5" d="M -2.585938 308.164062 L 74.773438 230.808594 L 150.9375 306.976562 L 73.582031 384.332031 Z M -2.585938 308.164062 " fill-opacity="1" fill-rule="nonzero"/></g></g></g><g clip-path="url(#f9f87f6bfa)"><g clip-path="url(#1d89d078f9)"><g clip-path="url(#6a7ac06624)"><path fill="#5954cd" d="M 316.472656 376.324219 L 364.285156 328.515625 L 412.28125 376.511719 L 364.472656 424.324219 Z M 316.472656 376.324219 " fill-opacity="1" fill-rule="nonzero"/></g></g></g><g clip-path="url(#6c9fe2ab3d)"><g clip-path="url(#8554517cb6)"><g clip-path="url(#d8d9ed2362)"><path fill="#31bdc6" d="M 278.941406 214.421875 L 326.753906 166.613281 L 374.75 214.609375 L 326.941406 262.421875 Z M 278.941406 214.421875 " fill-opacity="1" fill-rule="nonzero"/></g></g></g><g clip-path="url(#037c7d7c77)"><g clip-path="url(#cb4c7071ec)"><g clip-path="url(#225cd5c957)"><path fill="#69e9f5" d="M 87.074219 24.113281 L 164.433594 -53.246094 L 240.601562 22.921875 L 163.242188 100.28125 Z M 87.074219 24.113281 " fill-opacity="1" fill-rule="nonzero"/></g></g></g><g clip-path="url(#b417087f0b)"><g clip-path="url(#115140cdf1)"><g clip-path="url(#402ecad75f)"><path fill="#69e9f5" d="M 23.144531 133.640625 L 70.953125 85.832031 L 118.953125 133.828125 L 71.140625 181.640625 Z M 23.144531 133.640625 " fill-opacity="1" fill-rule="nonzero"/></g></g></g><g clip-path="url(#2716d71486)"><g clip-path="url(#39db30d347)"><g clip-path="url(#eb7a4ede37)"><path fill="#8a4bdb" d="M -22.375 131.242188 L 54.980469 208.597656 L -21.1875 284.765625 L -98.542969 207.410156 Z M -22.375 131.242188 " fill-opacity="1" fill-rule="nonzero"/></g></g></g><g clip-path="url(#b0f5566f38)"><g clip-path="url(#8f45017469)"><g clip-path="url(#6f3d33d48f)"><path fill="#31bdc6" d="M -86.898438 20.054688 L -9.542969 -57.300781 L 66.625 18.863281 L -10.730469 96.222656 Z M -86.898438 20.054688 " fill-opacity="1" fill-rule="nonzero"/></g></g></g><g clip-path="url(#34d28067f3)"><g clip-path="url(#ce00e6d28e)"><g clip-path="url(#9d1d0ce29b)"><path fill="#5954cd" d="M 278.945312 -36.542969 L 358.777344 -116.375 L 437.078125 -38.074219 L 357.246094 41.757812 Z M 278.945312 -36.542969 " fill-opacity="1" fill-rule="nonzero"/></g></g></g></svg>